<svg width="90" height="59" viewBox="0 0 90 59" fill="none" xmlns="http://www.w3.org/2000/svg">
<path d="M77 24.5C77 11 66 0 52.5 0C44.3 0 37.1 4 32.7 10.1C31.1 9.4 29.4 9 27.5 9C20.6 9 15 14.6 15 21.5C15 21.7 15 21.8 15 22L15.3 24.1L12.4 24.7C5.2 27 0 33.6 0 41.5C0 51.2 7.8 59 17.5 59H33.5C34.9 59 36 57.9 36 56.5C36 55.1 34.9 54 33.5 54H18C17.9 54 17.9 54 17.8 54C17.7 54 17.6 54 17.5 54C10.6 54 5 48.4 5 41.5C5 35.2 9.7 29.9 15.9 29.1C18.8 28.7 20.8 26 20.2 23.1C20.1 22.6 20 22 20 21.5C20 17.4 23.4 14 27.5 14C28.6 14 29.6 14.2 30.6 14.7C32.8 15.7 35.3 15 36.7 13.1C40.3 8.1 46.2 5.1 52.5 5.1C63.3 5 72 13.7 72 24.5C72 26.7 73.5 28.7 75.7 29.3C81.2 30.8 85 35.8 85 41.5C85 48.4 79.4 54 72.5 54C72.4 54 72.3 54 72 54H55H52.5C50 54 48 52 48 49.5V47V41.5V33.6L54.1 40.6C55 41.6 56.6 41.7 57.6 40.8C58.6 39.9 58.7 38.3 57.8 37.3L48 26.1V26L47.4 25.3C46.4 24.2 44.6 24.2 43.6 25.3L43 26V26.1L33.1 37.4C32.2 38.4 32.3 40 33.3 40.9C34.3 41.8 35.9 41.7 36.8 40.7L42.9 33.7V41.6V47V49.5C42.9 54.7 47.2 59 52.4 59H61.4H72C72.2 59 72.3 59 72.5 59C82.2 59 90 51.2 90 41.5C90 33.4 84.5 26.6 77 24.5Z" fill="#005EE1"/>
</svg>
